<?xml version="1.0" encoding="UTF-8"?>
<svg width="25px" height="25px" viewBox="0 0 25 25" version="1.1" xmlns="http://www.w3.org/2000/svg" xmlns:xlink="http://www.w3.org/1999/xlink">
    <!-- Generator: Sketch 50.2 (55047) - http://www.bohemiancoding.com/sketch -->
    <title>002-right-arrow copy</title>
    <desc>Created with Sketch.</desc>
    <defs></defs>
    <g id="Page-1" stroke="none" stroke-width="1" fill="none" fill-rule="evenodd">
        <g id="AfterQuestions-Home-Desktop" transform="translate(-142.000000, -269.000000)" fill-rule="nonzero">
            <g id="002-right-arrow-copy" transform="translate(154.500000, 281.500000) rotate(-180.000000) translate(-154.500000, -281.500000) translate(142.000000, 269.000000)">
                <path d="M12.5,24.9145299 C19.3376068,24.9145299 24.9145299,19.3589744 24.9145299,12.5 C24.9145299,5.64102564 19.3376068,0.0854700855 12.5,0.0854700855 C5.66239316,0.0854700855 0.0854700855,5.66239316 0.0854700855,12.5 C0.0854700855,19.3376068 5.66239316,24.9145299 12.5,24.9145299 Z" id="Shape" fill="#FFDD00"></path>
                <path d="M9.63675214,18.6924753 C9.80769231,18.8633605 10.0213675,18.9488032 10.2564103,18.9488032 C10.4700855,18.9488032 10.7051282,18.8633605 10.8760684,18.6924753 L16.517094,13.0532623 C16.6880342,12.882377 16.7735043,12.6687705 16.7735043,12.4338033 C16.7735043,12.1988361 16.6880342,11.9852295 16.517094,11.8143443 L10.8760684,6.17513128 C10.534188,5.8333608 9.97863248,5.8333608 9.63675214,6.17513128 C9.29487179,6.51690177 9.29487179,7.07227881 9.63675214,7.41404929 L14.6581197,12.4338033 L9.63675214,17.4535573 C9.29487179,17.7953278 9.29487179,18.3507048 9.63675214,18.6924753 Z" id="Shape" fill="#FFFFFF"></path>
            </g>
        </g>
    </g>
</svg>