<?xml version="1.0" encoding="UTF-8"?>
<svg width="24px" height="25px" viewBox="0 0 24 25" version="1.1" xmlns="http://www.w3.org/2000/svg" xmlns:xlink="http://www.w3.org/1999/xlink">
    <!-- Generator: Sketch 50.2 (55047) - http://www.bohemiancoding.com/sketch -->
    <title>Shape</title>
    <desc>Created with Sketch.</desc>
    <defs></defs>
    <g id="Symbols" stroke="none" stroke-width="1" fill="none" fill-rule="evenodd">
        <g id="actionIcon" fill="#F3A908" fill-rule="nonzero">
            <path d="M19.0767635,16.0477178 C17.6400415,16.0477178 16.3589212,16.7323651 15.5394191,17.7904564 L8.67738589,13.9574689 C8.83817427,13.4958506 8.92634855,12.9979253 8.92634855,12.4844398 C8.92634855,11.9657676 8.83817427,11.473029 8.67219917,11.0062241 L15.5290456,7.17842324 C16.343361,8.24170124 17.629668,8.93153527 19.0715768,8.93153527 C21.530083,8.93153527 23.5373444,6.92946058 23.5373444,4.46576763 C23.5373444,2.00207469 21.5352697,0 19.0715768,0 C16.6078838,0 14.6058091,2.00207469 14.6058091,4.46576763 C14.6058091,4.98443983 14.6939834,5.48236515 14.8599585,5.9439834 L8.00829876,9.77178423 C7.1939834,8.7033195 5.90767635,8.0186722 4.46576763,8.0186722 C2.00726141,8.0186722 0,10.0207469 0,12.4844398 C0,14.9481328 2.00726141,16.9502075 4.47095436,16.9502075 C5.91286307,16.9502075 7.19917012,16.2603734 8.0186722,15.1919087 L14.8755187,19.0248963 C14.7095436,19.4917012 14.6161826,19.9948133 14.6161826,20.5134855 C14.6161826,22.9719917 16.6182573,24.9792531 19.0819502,24.9792531 C21.5456432,24.9792531 23.5477178,22.9771784 23.5477178,20.5134855 C23.5477178,18.0497925 21.5404564,16.0477178 19.0767635,16.0477178 Z" id="Shape"></path>
        </g>
    </g>
</svg>